<svg width="20" height="20" fill="none" xmlns="http://www.w3.org/2000/svg">
    <path d="M7.53 19.804a.884.884 0 0 0 .271-.054c.309-.118.396-.376.717-1.998.324-1.639.5-2.024 1.293-2.907 1.496-1.738 1.526-2.44 2.734-4.002.565-.731 1.414-1.06 2.232-1.217-.079-2.765-.006-5.537-.032-8.304a1.689 1.689 0 0 1-.023-.217c-.299-.014-.588-.03-.863-.052a9.398 9.398 0 0 1-1.319-.24C9.293.147 6.14.298 2.643.304a1.16 1.16 0 0 0-1.156 1.03 1.169 1.169 0 0 0 .886 1.27H1.7A1.587 1.587 0 0 0 .134 3.932a1.599 1.599 0 0 0 1.04 1.772A1.589 1.589 0 0 0 0 7.31 1.596 1.596 0 0 0 1.304 8.81a1.683 1.683 0 0 0-1.157 1.866 1.689 1.689 0 0 0 1.663 1.43H6.3c.604.047.636.174.636.478 0 .146-.194.787-.432 1.424-.573 1.655-1.343 4.017-.123 5.235.363.335.756.577 1.147.56ZM19.372 10.422a.623.623 0 0 0 .628-.63V.826a.627.627 0 0 0-.628-.63h-3.45a.623.623 0 0 0-.628.63v8.968a.628.628 0 0 0 .627.629h3.451Z" />
</svg>