<svg width="21" height="21" fill="none" xmlns="http://www.w3.org/2000/svg">
    <!-- <path d="M7.53 19.804a.884.884 0 0 0 .271-.054c.309-.118.396-.376.717-1.998.324-1.639.5-2.024 1.293-2.907 1.496-1.738 1.526-2.44 2.734-4.002.565-.731 1.414-1.06 2.232-1.217-.079-2.765-.006-5.537-.032-8.304a1.689 1.689 0 0 1-.023-.217c-.299-.014-.588-.03-.863-.052a9.398 9.398 0 0 1-1.319-.24C9.293.147 6.14.298 2.643.304a1.16 1.16 0 0 0-1.156 1.03 1.169 1.169 0 0 0 .886 1.27H1.7A1.587 1.587 0 0 0 .134 3.932a1.599 1.599 0 0 0 1.04 1.772A1.589 1.589 0 0 0 0 7.31 1.596 1.596 0 0 0 1.304 8.81a1.683 1.683 0 0 0-1.157 1.866 1.689 1.689 0 0 0 1.663 1.43H6.3c.604.047.636.174.636.478 0 .146-.194.787-.432 1.424-.573 1.655-1.343 4.017-.123 5.235.363.335.756.577 1.147.56ZM19.372 10.422a.623.623 0 0 0 .628-.63V.826a.627.627 0 0 0-.628-.63h-3.45a.623.623 0 0 0-.628.63v8.968a.628.628 0 0 0 .627.629h3.451Z" /> -->
    <path d="m8.942 20-.038-1H8.9l.041 1Zm.251-.05.347.937.01-.003-.357-.935Zm.662-1.843.98.195V18.3l-.98-.194Zm1.192-2.681.744.668.007-.008.007-.008-.758-.652Zm2.522-3.691.79.611h.001l-.791-.611Zm1.212-9.03-.097.995.01.001h.01l.077-.996Zm-1.217-.222.267-.964-.033-.01-.033-.006-.2.98Zm-9.128-.469-.001 1h.002l-.001-1Zm-.249 2.122v1a1 1 0 0 0 .232-1.972l-.232.972Zm-.622 0v-1 1ZM3.08 6.995l.262.965a1 1 0 0 0 .07-1.908l-.332.943Zm.12 2.864.302.954a1 1 0 0 0-.122-1.937l-.18.983Zm.467 3.041v1-1Zm4.143 0 .076-.997-.038-.003H7.81v1Zm.187 1.754-.936-.35-.005.011-.003.012.944.327Zm-.113 4.828-.706.708.014.014.014.013.678-.735ZM8.981 21c.191-.008.38-.045.56-.112l-.695-1.875A.188.188 0 0 1 8.904 19l.077 1.998Zm.569-.115c.186-.072.399-.19.585-.408.165-.193.261-.409.326-.592.123-.345.232-.861.374-1.582l-1.961-.39c-.154.775-.234 1.125-.296 1.3-.028.077-.024.035.037-.036a.583.583 0 0 1 .222-.16l.713 1.868Zm1.286-2.583c.15-.759.247-1.124.366-1.388.105-.237.246-.437.589-.819l-1.488-1.336c-.388.432-.694.816-.928 1.34-.22.494-.353 1.062-.501 1.816l1.962.387Zm.97-2.223c.74-.86 1.125-1.476 1.464-2.052.327-.556.58-1.02 1.09-1.68l-1.582-1.223c-.604.78-.922 1.362-1.233 1.89a10.88 10.88 0 0 1-1.256 1.76l1.516 1.305Zm2.554-3.732c.024-.031.115-.12.321-.248.193-.12.433-.24.697-.352.54-.23 1.072-.381 1.318-.42L16.38 9.35c-.453.072-1.145.282-1.785.554a7.25 7.25 0 0 0-.968.493c-.29.18-.613.42-.85.725l1.583 1.223Zm2.111-10.64c-.175-.008-.568-.002-.888.001a45.119 45.119 0 0 1-.652.003l-.055-.001-.018-.001-.155 1.994c.184.014.59.009.903.005.37-.004.673-.008.773-.003l.092-1.998Zm-1.594.003a7.724 7.724 0 0 1-1.046-.19l-.533 1.927a9.63 9.63 0 0 0 1.386.254l.193-1.99Zm-1.112-.206c-3.124-.64-6.17-.493-9.33-.489l.002 2c3.29-.005 6.06-.138 8.927.448l.4-1.96Zm-9.329-.489c-.508 0-1 .187-1.379.525l1.33 1.493a.07.07 0 0 1 .048-.018l.001-2Zm-1.379.525c-.38.339-.621.805-.68 1.31l1.986.232a.077.077 0 0 1 .025-.049L3.057 1.54Zm-.68 1.31c-.06.504.068 1.013.359 1.43l1.64-1.145a.078.078 0 0 1-.013-.053l-1.987-.233Zm.359 1.43c.29.416.724.712 1.22.83l.463-1.945a.072.072 0 0 1-.043-.03l-1.64 1.144Zm1.451-1.143h-.622v2h.622v-2Zm-.623 0c-.582.001-1.146.208-1.59.585l1.293 1.526a.464.464 0 0 1 .3-.11l-.003-2Zm-1.59.585a2.472 2.472 0 0 0-.839 1.472l1.972.335a.472.472 0 0 1 .16-.281L1.974 3.72Zm-.839 1.472c-.097.574.01 1.164.306 1.666l1.724-1.012a.474.474 0 0 1-.058-.32l-1.972-.334Zm.306 1.666c.294.503.757.885 1.307 1.079l.665-1.886a.467.467 0 0 1-.248-.205L1.441 6.86Zm1.377-.83a2.466 2.466 0 0 0-1.345.926l1.616 1.18a.465.465 0 0 1 .253-.175l-.524-1.93Zm-1.345.926A2.473 2.473 0 0 0 1 8.517l1.998-.084a.473.473 0 0 1 .09-.298l-1.615-1.18ZM1 8.517c.023.559.236 1.094.602 1.517l1.511-1.311a.472.472 0 0 1-.115-.29L1 8.517Zm.602 1.517c.367.423.867.708 1.418.81l.36-1.968a.465.465 0 0 1-.267-.153l-1.51 1.31Zm1.296-1.128A2.553 2.553 0 0 0 1.5 9.996l1.7 1.053a.552.552 0 0 1 .302-.236l-.604-1.907ZM1.5 9.996a2.56 2.56 0 0 0-.355 1.736l1.977-.303a.56.56 0 0 1 .078-.38L1.5 9.995Zm-.355 1.736c.093.603.397 1.153.86 1.55l1.304-1.515a.558.558 0 0 1-.187-.338l-1.977.303Zm.86 1.55a2.55 2.55 0 0 0 1.662.618v-2a.55.55 0 0 1-.358-.133l-1.304 1.516Zm1.662.618H7.81v-2H3.667v2Zm4.066-.003c.114.009.152.018.149.018a.618.618 0 0 1-.24-.142.77.77 0 0 1-.235-.395c-.015-.07-.01-.112-.01-.038h2c0-.074.037-.643-.414-1.05a1.402 1.402 0 0 0-.592-.31 2.852 2.852 0 0 0-.505-.077l-.153 1.994Zm-.337-.557c0-.072.01-.117.007-.103a4.85 4.85 0 0 1-.081.3 13.58 13.58 0 0 1-.261.767l1.873.7c.116-.312.223-.626.302-.887.04-.129.074-.254.1-.362.018-.07.06-.245.06-.415h-2Zm-.343.987c-.261.753-.608 1.777-.725 2.775-.115.98-.04 2.199.85 3.088l1.413-1.416c-.235-.234-.368-.665-.277-1.438.088-.753.36-1.582.628-2.355l-1.89-.654Zm.153 5.89c.372.343.994.814 1.778.781L8.901 19c.042-.002.036.013-.035-.025a1.507 1.507 0 0 1-.304-.228l-1.356 1.47Z" fill="#FF5252"/>
    <mask id="a" fill="#fff">
        <path d="M20.373 11.409A.623.623 0 0 0 21 10.78V1.827a.627.627 0 0 0-.627-.628h-3.447a.622.622 0 0 0-.627.628v8.954a.626.626 0 0 0 .627.628h3.447Z"/>
    </mask>
    <path d="m20.373 11.409.012-3h-.012v3ZM21 10.78h-3v.01l3-.01Zm0-8.954-3-.01v.01h3Zm-.627-.628v3h.012l-.012-3Zm-3.447 0-.011 3h.01v-3Zm-.627.628h3v-.01l-3 .01Zm0 8.954 3 .01v-.01h-3Zm.627.628v-3h-.011l.01 3Zm3.435 3c.48.002.954-.092 1.397-.274l-2.289-5.547c.29-.12.602-.18.916-.18l-.024 6Zm1.397-.274a3.624 3.624 0 0 0 1.182-.79l-4.246-4.24c.221-.22.485-.397.775-.517l2.289 5.547Zm1.182-.79c.338-.338.605-.74.787-1.182L18.178 9.88c.12-.29.294-.552.516-.774l4.246 4.239Zm.787-1.182c.182-.442.275-.915.273-1.392l-6 .02c-.001-.313.06-.622.178-.911l5.55 2.283ZM24 10.781V1.827h-6v8.954h6Zm0-8.943c.002-.477-.09-.95-.273-1.392l-5.549 2.282A2.374 2.374 0 0 1 18 1.816l6 .022ZM23.727.446a3.626 3.626 0 0 0-.787-1.183l-4.246 4.239a2.374 2.374 0 0 1-.516-.774l5.55-2.282ZM22.94-.737a3.624 3.624 0 0 0-1.182-.79l-2.29 5.547a2.376 2.376 0 0 1-.774-.518L22.94-.737Zm-1.182-.79A3.623 3.623 0 0 0 20.36-1.8l.024 6a2.377 2.377 0 0 1-.916-.18l2.289-5.546ZM20.373-1.8h-3.447v6h3.447v-6Zm-3.436 0a3.623 3.623 0 0 0-1.397.275l2.29 5.545c-.29.12-.601.181-.915.18l.022-6Zm-1.397.275a3.626 3.626 0 0 0-1.182.79L18.606 3.5a2.376 2.376 0 0 1-.775.518l-2.29-5.545Zm-1.182.79c-.338.338-.605.74-.787 1.182l5.55 2.281c-.12.29-.294.553-.515.774L14.358-.736ZM13.571.446a3.627 3.627 0 0 0-.272 1.392l6-.022c.001.313-.06.622-.178.911L13.57.446ZM13.3 1.827v8.954h6V1.827h-6Zm0 8.944c-.002.477.091.95.273 1.392L19.12 9.88c.118.289.179.598.178.91l-6-.02Zm.273 1.392c.181.441.449.843.787 1.181l4.246-4.238c.222.222.397.485.515.774l-5.548 2.283Zm.787 1.181c.337.339.739.607 1.181.79l2.29-5.546c.29.12.554.296.775.518l-4.247 4.239Zm1.181.79c.443.183.918.276 1.397.274l-.022-6c.314 0 .625.06.916.18l-2.29 5.546Zm1.386.275h3.447v-6h-3.447v6Z" fill="#FF5252" mask="url(#a)"/>
</svg>