<svg width="117" height="20" fill="none" xmlns="http://www.w3.org/2000/svg">
<path fill-rule="evenodd" clip-rule="evenodd" d="M32.796 7.276c.773-.837 1.713-1.314 2.984-1.314h.559V9c-3.03 0-3.543.045-3.543 1.171v3.793h-2.94v-8h2.94v1.313ZM54.949 5.81c2.397 0 4.264 1.319 4.264 4.148 0 2.83-1.867 4.149-4.264 4.149-1.48 0-2.457-.72-2.984-1.39v1.241h-2.94V4.167h2.94V7.2c.527-.67 1.505-1.39 2.984-1.39Zm-.837 5.674c1.19 0 1.999-.533 1.999-1.526 0-.992-.809-1.525-2-1.525-1.322 0-2.146.533-2.146 1.525 0 .993.823 1.526 2.147 1.526Zm11.187-5.792c2.852 0 5.174 1.318 5.174 4.266 0 2.978-2.322 4.208-5.174 4.208-2.852 0-5.175-1.23-5.175-4.208 0-2.948 2.323-4.266 5.175-4.266Zm0 5.852c1.19 0 2-.563 2-1.586 0-1.022-.81-1.585-2-1.585-1.323 0-2.146.563-2.146 1.585 0 1.023.823 1.586 2.146 1.586ZM42.568 5.693c2.852 0 5.174 1.318 5.174 4.266 0 2.978-2.322 4.208-5.174 4.208-2.852 0-5.175-1.23-5.175-4.208 0-2.948 2.323-4.266 5.175-4.266Zm0 5.852c1.19 0 2-.563 2-1.586 0-1.022-.81-1.585-2-1.585-1.323 0-2.146.563-2.146 1.585 0 1.023.823 1.586 2.146 1.586ZM75.707 4.18V5.96H78.5v2.667h-2.793v1.778c0 .948 1.353.77 2.793.696v2.86c-.985.147-2 .147-2.175.147-1.72 0-3.558-.77-3.558-3.259V8.626H71.15V5.959h1.617V4.181h2.94Zm11.187 3.02V5.959h2.94v8h-2.94v-1.241c-.526.67-1.504 1.39-2.984 1.39-2.396 0-4.264-1.32-4.264-4.149 0-2.83 1.868-4.148 4.264-4.148 1.48 0 2.458.72 2.984 1.39Zm-2.147 4.284c1.323 0 2.147-.533 2.147-1.526 0-.992-.824-1.525-2.147-1.525-1.19 0-1.999.533-1.999 1.525 0 .993.81 1.526 2 1.526Zm29.226-5.511h2.94v8h-2.94v-1.241c-.527.67-1.505 1.39-2.985 1.39-2.396 0-4.263-1.32-4.263-4.149 0-2.83 1.867-4.148 4.263-4.148 1.48 0 2.458.72 2.985 1.39V5.973Zm-2.147 5.526c1.324 0 2.147-.534 2.147-1.526s-.823-1.526-2.147-1.526c-1.19 0-1.999.534-1.999 1.526s.809 1.526 1.999 1.526Zm-18.92-.608c1.177 0 1.853.771 1.853 1.616 0 .844-.676 1.585-1.852 1.585-1.191 0-1.867-.74-1.867-1.585s.676-1.616 1.867-1.616Zm9.453-1.614V5.959h2.94v8h-2.94v-1.255c-.505.667-1.534 1.403-2.837 1.403-2.617 0-4.057-1.347-4.057-4.088v-4.06h2.94v3.526c0 1.393.75 1.689 1.969 1.689 1.235 0 1.985-.504 1.985-1.896ZM10 7.313V6H7.06v8H10v-3.792c0-1.127.514-1.17 3.542-1.17V6h-.558c-1.27 0-2.211.477-2.984 1.313Z" fill="#fff"/><path fill-rule="evenodd" clip-rule="evenodd" d="M.087 10c0-5.515 4.45-10 9.923-10 5.472 0 9.923 4.485 9.923 10s-4.45 10-9.923 10C4.538 20 .087 15.515.087 10Zm1.985 0c0 4.41 3.562 8 7.938 8 4.376 0 7.938-3.59 7.938-8s-3.562-8-7.938-8c-4.376 0-7.938 3.59-7.938 8Z" fill="#fff"/>
</svg>