<svg width="20" height="20" fill="none" xmlns="http://www.w3.org/2000/svg"><path fill-rule="evenodd" clip-rule="evenodd" d="M18.658 6.342a1.346 1.346 0 0 1 1.26.872c.193.523.039 1.11-.388 1.474l-4.623 3.798 1.936 5.76a1.325 1.325 0 0 1-.483 1.497 1.353 1.353 0 0 1-1.585-.002L10 16.27l-4.775 3.468a1.353 1.353 0 0 1-1.587.001 1.325 1.325 0 0 1-.48-1.499l1.935-5.757L.48 8.695a1.325 1.325 0 0 1-.4-1.476 1.344 1.344 0 0 1 1.263-.877h5.448L8.736.882C8.926.356 9.428.004 9.99 0a1.343 1.343 0 0 1 1.267.865l1.952 5.477h5.448Zm-5.689 6.13a.904.904 0 0 1 .285-.987l3.553-2.923a.226.226 0 0 0-.145-.402h-4.103a.916.916 0 0 1-.865-.607L10.217 3.4a.23.23 0 0 0-.433 0L8.306 7.553a.916.916 0 0 1-.865.607H3.338a.23.23 0 0 0-.216.15.226.226 0 0 0 .07.252l3.556 2.92c.291.24.404.631.284.987l-1.419 4.223a.226.226 0 0 0 .083.255.23.23 0 0 0 .27 0l3.49-2.539a.923.923 0 0 1 1.085 0l3.495 2.543c.081.059.19.06.271 0a.226.226 0 0 0 .082-.255l-1.42-4.224Z" fill="#FF5252"/></svg>