<svg width="20" height="20" fill="none" xmlns="http://www.w3.org/2000/svg"><path d="M4.583 7.083A4.588 4.588 0 0 0 0 11.667v2.916c0 .23.187.417.417.417h1.508c.108 0 .198.083.207.19l.37 4.428c.018.217.2.383.416.382h3.334a.417.417 0 0 0 .416-.382l.37-4.427c.009-.108.099-.19.207-.191h1.508c.23 0 .417-.187.417-.417v-2.916a4.588 4.588 0 0 0-4.587-4.584ZM4.583 6.25a2.917 2.917 0 1 0 0-5.833 2.917 2.917 0 0 0 0 5.833ZM19.817 1.38a.613.613 0 0 0-.313-.157.833.833 0 0 0-.927.166l-3.846 3.848a.21.21 0 0 1-.295 0l-.983-.983a.833.833 0 0 0-1.178 1.179l1.314 1.317c.55.548 1.439.548 1.989 0l4.178-4.178a.82.82 0 0 0 .228-.667.612.612 0 0 0-.167-.524Z" fill="#FF5252"/><path d="M19.207 5.992a.833.833 0 0 0-1.044.546 3.75 3.75 0 1 1-3.58-4.871.833.833 0 1 0 0-1.667 5.417 5.417 0 1 0 5.167 7.036.833.833 0 0 0-.543-1.044ZM4.583 7.083A4.588 4.588 0 0 0 0 11.667v2.916c0 .23.187.417.417.417h1.508c.108 0 .198.083.207.19l.37 4.428c.018.217.2.383.416.382h3.334a.417.417 0 0 0 .416-.382l.37-4.427c.009-.108.099-.19.207-.191h1.508c.23 0 .417-.187.417-.417v-2.916a4.588 4.588 0 0 0-4.587-4.584ZM4.583 6.25a2.917 2.917 0 1 0 0-5.833 2.917 2.917 0 0 0 0 5.833Z" fill="#FF5252"/><path d="M19.817 1.38a.613.613 0 0 0-.313-.157.833.833 0 0 0-.927.166l-3.846 3.848a.21.21 0 0 1-.295 0l-.983-.983a.833.833 0 0 0-1.178 1.179l1.314 1.317c.55.548 1.439.548 1.989 0l4.178-4.178a.82.82 0 0 0 .228-.667.612.612 0 0 0-.167-.524Z" fill="#FF5252"/><path d="M19.207 5.992a.833.833 0 0 0-1.044.546 3.75 3.75 0 1 1-3.58-4.871.833.833 0 1 0 0-1.667 5.417 5.417 0 1 0 5.167 7.036.833.833 0 0 0-.543-1.044Z" fill="#FF5252"/></svg>